<svg aria-hidden="true" style="position: absolute; width: 0; height: 0; overflow: hidden;" version="1.1"
  xmlns="http://www.w3.org/2000/svg" xmlns:xlink="http://www.w3.org/1999/xlink">
  <defs>

    <symbol id="flame" viewBox="0 0 23 30"  >
    <path d="M21.2 12.8636L19.3968 9.68123V12.65C19.5282 15.3055 19 15.8548 18.15 16.55C18.5179 13.8195 18.4567 9.51679 15.5098 5.2C13.6674 2.50203 10.5739 0.896163 6.87648 0.337836L4.64256 0L6.25532 1.58309C8.17961 3.47196 9.15831 5.4712 9.16406 7.5269C9.16687 8.71282 8.84293 9.77337 8.44073 10.6324C8.34468 9.13251 7.80917 7.44046 6.08854 6.51064L4.92625 5.88306L5.00982 7.20045C5.19978 10.2031 3.91751 12.0356 2.55901 13.9762C1.18736 15.9354 -0.230362 17.9608 0.0314882 21.1249C0.478346 26.5265 3.79674 29.507 9.89491 29.9835C10.0361 29.995 10.1832 30 10.3332 30C13.458 30 18.1659 27.6317 20.6363 23.6668C22.0722 21.3657 23.5346 17.6215 21.2 12.8636ZM10.3339 28.5376C10.3003 28.5376 10.2696 28.5347 10.2375 28.534C10.3339 28.5319 10.4211 28.5304 10.5036 28.5297C10.4478 28.5311 10.3889 28.5376 10.3339 28.5376ZM18.7 22.55C16.7061 25.749 14.6083 27.1778 11.95 27.5C14.8319 26.6006 15.7884 16.4042 9.89491 14.65C11.4494 17.348 8.49396 18.9354 6.43898 20.1592C4.38401 21.3829 3.16165 23.4682 4 26.1C4.03071 26.1964 3.80895 25.8622 3.85 25.95C2.55901 24.55 2.51291 23.5247 2.3 20.95C2.08104 18.3125 3.00306 17.226 4.28111 15.4C5.42199 13.7708 6.16533 12.7726 6.43898 10.2C7.46485 11.9146 6.74329 13.1812 6.73405 13.214L5.99641 15.8548L8.2 14.2C8.30896 14.0925 11.7007 11.8664 11.7 8.15C11.6993 6.32396 10.0099 3.95247 8.79117 2.27577C11.0276 2.99054 12.1648 4.89397 13.4 6.7C16.9413 11.8794 15.8113 19.2233 15.7935 19.3047L15.5098 20.5606L16.7343 20.1592C16.7693 20.1477 19.457 19.4227 20.55 16.45C21.1386 19.3053 19.6516 21.0218 18.7 22.55Z" fill="#FF4D00"/>
    </symbol>


    <symbol id="heart" viewBox="0 0 18 18">
    <path d="M15.63 3.4575C15.2469 3.07425 14.7921 2.77023 14.2915 2.56281C13.7909 2.35539 13.2543 2.24863 12.7125 2.24863C12.1706 2.24863 11.634 2.35539 11.1334 2.56281C10.6329 2.77023 10.178 3.07425 9.79497 3.4575L8.99997 4.2525L8.20497 3.4575C7.4312 2.68373 6.38174 2.24903 5.28747 2.24903C4.19319 2.24903 3.14374 2.68373 2.36997 3.4575C1.5962 4.23127 1.1615 5.28072 1.1615 6.375C1.1615 7.46927 1.5962 8.51873 2.36997 9.2925L3.16497 10.0875L8.99997 15.9225L14.835 10.0875L15.63 9.2925C16.0132 8.90943 16.3172 8.45461 16.5247 7.95401C16.7321 7.45342 16.8388 6.91686 16.8388 6.375C16.8388 5.83313 16.7321 5.29657 16.5247 4.79598C16.3172 4.29539 16.0132 3.84056 15.63 3.4575Z" stroke="white" stroke-opacity="0.8" stroke-width="1.5" stroke-linecap="round" stroke-linejoin="round"/>
    </symbol>

  </defs>
</svg>